<svg height="512" viewBox="0 0 32 32" width="512" xmlns="http://www.w3.org/2000/svg"><g id="f85975ab-9299-4c90-946f-7d7662239f84" data-name="Layer 2"><path d="m26.4 30h-6.5a1 1 0 0 1 0-2h6.5a1.6 1.6 0 0 0 1.6-1.6v-6.5a1 1 0 0 1 2 0v6.5a3.61 3.61 0 0 1 -3.6 3.6zm-13.3-1a1 1 0 0 0 -1-1h-6.5a1.6 1.6 0 0 1 -1.6-1.6v-6.5a1 1 0 0 0 -2 0v6.5a3.61 3.61 0 0 0 3.6 3.6h6.5a1 1 0 0 0 1-1zm-9.1-16.9v-6.5a1.6 1.6 0 0 1 1.6-1.6h6.5a1 1 0 0 0 0-2h-6.5a3.61 3.61 0 0 0 -3.6 3.6v6.5a1 1 0 0 0 2 0zm26 0v-6.5a3.61 3.61 0 0 0 -3.6-3.6h-6.5a1 1 0 0 0 0 2h6.5a1.6 1.6 0 0 1 1.6 1.6v6.5a1 1 0 1 0 2 0z"/></g></svg>